<svg id="svg" version="1.1" xmlns="http://www.w3.org/2000/svg" xmlns:xlink="http://www.w3.org/1999/xlink" width="400" height="416.14349775784757" viewBox="0, 0, 400,416.14349775784757"><g id="svgg"><path id="path0" d="M41.800 3.600 C 41.320 4.130,40.568 4.400,39.571 4.400 C 37.577 4.400,36.800 4.735,36.800 5.593 C 36.800 6.164,36.365 6.337,34.551 6.487 C 33.016 6.615,32.185 6.884,31.931 7.337 C 31.727 7.702,31.241 8.000,30.850 8.000 C 30.459 8.000,29.717 8.450,29.200 9.000 C 28.683 9.550,27.825 10.000,27.293 10.000 C 26.662 10.000,26.252 10.278,26.116 10.800 C 26.000 11.243,25.570 11.600,25.153 11.600 C 24.616 11.600,24.400 11.887,24.400 12.600 C 24.400 13.504,24.242 13.600,22.763 13.600 C 21.488 13.600,21.081 13.769,20.926 14.363 C 20.816 14.783,20.369 15.219,19.933 15.333 C 19.497 15.447,19.043 15.914,18.924 16.370 C 18.801 16.839,18.379 17.200,17.953 17.200 C 17.482 17.200,17.200 17.482,17.200 17.953 C 17.200 18.379,16.839 18.801,16.370 18.924 C 15.914 19.043,15.447 19.497,15.333 19.933 C 15.219 20.369,14.783 20.816,14.363 20.926 C 13.769 21.081,13.600 21.488,13.600 22.763 C 13.600 24.242,13.504 24.400,12.600 24.400 C 11.878 24.400,11.600 24.615,11.600 25.173 C 11.600 25.598,11.240 26.060,10.800 26.200 C 10.184 26.396,10.000 26.805,10.000 27.984 C 10.000 29.282,9.849 29.551,9.000 29.764 C 8.149 29.978,8.000 30.246,8.000 31.561 C 8.000 32.770,7.826 33.152,7.200 33.316 C 6.502 33.498,6.400 33.862,6.400 36.163 C 6.400 38.503,6.313 38.800,5.627 38.800 C 5.202 38.800,4.746 39.141,4.614 39.557 C 4.482 39.973,4.019 40.406,3.587 40.519 C 2.357 40.841,2.343 272.527,3.573 273.186 C 3.998 273.413,4.460 273.959,4.600 274.400 C 4.740 274.840,5.202 275.200,5.627 275.200 C 6.305 275.200,6.400 275.494,6.400 277.586 C 6.400 279.538,6.541 280.047,7.176 280.387 C 7.687 280.660,7.994 281.315,8.076 282.301 C 8.167 283.403,8.439 283.905,9.100 284.195 C 9.776 284.491,10.000 284.924,10.000 285.932 C 10.000 286.926,10.202 287.328,10.778 287.478 C 11.205 287.590,11.610 288.068,11.678 288.541 C 11.754 289.079,12.137 289.448,12.700 289.528 C 13.432 289.632,13.600 289.910,13.600 291.014 C 13.600 291.947,13.842 292.501,14.373 292.786 C 14.798 293.013,15.260 293.559,15.400 294.000 C 15.540 294.440,16.002 294.800,16.427 294.800 C 16.945 294.800,17.200 295.076,17.200 295.637 C 17.200 296.134,17.520 296.559,17.987 296.681 C 18.419 296.794,18.882 297.227,19.014 297.643 C 19.146 298.059,19.559 298.400,19.932 298.400 C 20.305 298.400,20.788 298.805,21.005 299.300 C 21.295 299.962,21.797 300.233,22.900 300.324 C 24.075 300.421,24.400 300.616,24.400 301.224 C 24.400 301.724,24.675 302.000,25.172 302.000 C 25.668 302.000,25.990 302.322,26.072 302.900 C 26.178 303.648,26.487 303.821,27.900 303.923 C 29.274 304.022,29.600 304.195,29.600 304.823 C 29.600 305.411,29.878 305.600,30.744 305.600 C 31.497 305.600,32.144 305.941,32.639 306.600 C 33.229 307.385,33.746 307.600,35.048 307.600 C 36.370 307.600,36.749 307.762,36.916 308.400 C 37.098 309.097,37.462 309.200,39.736 309.200 C 41.940 309.200,42.383 309.317,42.585 309.952 C 42.983 311.208,42.344 311.200,138.704 311.200 L 232.108 311.200 232.995 312.156 C 233.482 312.682,233.999 313.419,234.142 313.794 C 234.286 314.169,234.763 314.570,235.202 314.685 C 235.643 314.800,236.000 315.230,236.000 315.647 C 236.000 316.124,236.283 316.400,236.772 316.400 C 237.268 316.400,237.590 316.722,237.672 317.300 C 237.754 317.878,238.122 318.246,238.700 318.328 C 239.456 318.435,239.600 318.703,239.600 320.001 C 239.600 321.165,239.786 321.605,240.357 321.786 C 240.773 321.918,241.206 322.381,241.319 322.813 C 241.441 323.280,241.866 323.600,242.363 323.600 C 242.989 323.600,243.200 323.852,243.200 324.600 C 243.200 325.314,243.416 325.600,243.955 325.600 C 244.507 325.600,244.784 325.991,244.982 327.044 C 245.160 327.995,245.518 328.558,246.026 328.691 C 246.518 328.820,246.800 329.241,246.800 329.847 C 246.800 330.522,247.025 330.800,247.572 330.800 C 248.068 330.800,248.390 331.122,248.472 331.700 C 248.554 332.278,248.922 332.646,249.500 332.728 C 250.078 332.810,250.400 333.132,250.400 333.628 C 250.400 334.133,250.676 334.400,251.200 334.400 C 251.817 334.400,252.000 334.667,252.000 335.567 C 252.000 337.255,252.381 338.000,253.243 338.000 C 253.733 338.000,254.000 338.282,254.000 338.800 C 254.000 339.324,254.267 339.600,254.772 339.600 C 255.268 339.600,255.590 339.922,255.672 340.500 C 255.754 341.078,256.122 341.446,256.700 341.528 C 257.463 341.636,257.600 341.901,257.600 343.265 C 257.600 344.512,257.772 344.920,258.363 345.074 C 258.783 345.184,259.216 345.617,259.326 346.037 C 259.442 346.481,259.875 346.800,260.363 346.800 C 260.989 346.800,261.200 347.052,261.200 347.800 C 261.200 348.533,261.413 348.800,262.000 348.800 C 262.533 348.800,262.800 349.067,262.800 349.600 C 262.800 350.187,263.067 350.400,263.800 350.400 C 264.719 350.400,264.800 350.547,264.800 352.200 C 264.800 353.733,264.919 354.000,265.600 354.000 C 266.187 354.000,266.400 354.267,266.400 355.000 C 266.400 355.800,266.600 356.000,267.400 356.000 C 268.133 356.000,268.400 356.213,268.400 356.800 C 268.400 357.325,268.667 357.600,269.176 357.600 C 269.784 357.600,269.979 357.925,270.076 359.100 C 270.167 360.203,270.438 360.705,271.100 360.995 C 271.595 361.212,272.000 361.724,272.000 362.132 C 272.000 362.541,272.360 362.969,272.800 363.084 C 273.243 363.200,273.600 363.630,273.600 364.047 C 273.600 364.584,273.887 364.800,274.600 364.800 C 275.400 364.800,275.600 365.000,275.600 365.800 C 275.600 366.533,275.813 366.800,276.400 366.800 C 277.066 366.800,277.200 367.067,277.200 368.392 C 277.200 369.757,277.343 370.021,278.200 370.236 C 278.826 370.393,279.200 370.770,279.200 371.243 C 279.200 371.724,279.481 372.000,279.972 372.000 C 280.468 372.000,280.790 372.322,280.872 372.900 C 280.954 373.478,281.322 373.846,281.900 373.928 C 282.630 374.031,282.800 374.310,282.800 375.401 C 282.800 376.395,283.009 376.812,283.600 377.000 C 284.111 377.162,284.400 377.605,284.400 378.227 C 284.400 378.998,284.607 379.200,285.400 379.200 C 286.200 379.200,286.400 379.400,286.400 380.200 C 286.400 380.933,286.613 381.200,287.200 381.200 C 287.733 381.200,288.000 381.467,288.000 382.000 C 288.000 382.525,288.267 382.800,288.776 382.800 C 289.384 382.800,289.579 383.125,289.676 384.300 C 289.767 385.403,290.038 385.905,290.700 386.195 C 291.195 386.412,291.600 386.924,291.600 387.332 C 291.600 387.741,291.943 388.165,292.363 388.274 C 292.783 388.384,293.216 388.817,293.326 389.237 C 293.442 389.681,293.875 390.000,294.363 390.000 C 295.050 390.000,295.200 390.246,295.200 391.377 C 295.200 392.250,295.466 392.946,295.926 393.277 C 296.326 393.565,296.770 394.115,296.914 394.500 C 297.057 394.885,297.541 395.200,297.987 395.200 C 298.588 395.200,298.800 395.462,298.800 396.200 C 298.800 396.933,299.013 397.200,299.600 397.200 C 300.133 397.200,300.400 397.467,300.400 398.000 C 300.400 398.587,300.667 398.800,301.400 398.800 C 302.200 398.800,302.400 399.000,302.400 399.800 C 302.400 400.533,302.613 400.800,303.200 400.800 C 303.714 400.800,304.000 401.067,304.000 401.545 C 304.000 402.509,305.891 404.400,306.855 404.400 C 307.333 404.400,307.600 404.686,307.600 405.200 C 307.600 405.787,307.867 406.000,308.600 406.000 C 309.400 406.000,309.600 406.200,309.600 407.000 C 309.600 407.713,309.816 408.000,310.353 408.000 C 310.770 408.000,311.200 408.357,311.316 408.800 C 311.468 409.381,311.862 409.600,312.753 409.600 C 313.622 409.600,314.173 409.893,314.637 410.600 C 315.144 411.374,315.633 411.600,316.799 411.600 C 317.970 411.600,318.353 411.779,318.516 412.400 C 318.833 413.611,337.556 413.655,337.872 412.446 C 338.006 411.935,338.566 411.612,339.608 411.445 C 340.662 411.277,341.226 410.947,341.400 410.400 C 341.544 409.947,342.005 409.600,342.464 409.600 C 342.938 409.600,343.362 409.268,343.484 408.800 C 343.600 408.357,344.030 408.000,344.447 408.000 C 344.984 408.000,345.200 407.713,345.200 407.000 C 345.200 406.200,345.400 406.000,346.200 406.000 C 346.913 406.000,347.200 405.784,347.200 405.247 C 347.200 404.830,347.557 404.400,348.000 404.284 C 348.636 404.118,348.800 403.738,348.800 402.437 C 348.800 401.098,348.938 400.800,349.557 400.800 C 350.419 400.800,350.800 400.055,350.800 398.367 C 350.800 397.725,351.160 396.840,351.600 396.400 C 352.390 395.610,352.400 395.067,352.400 353.400 L 352.400 311.200 354.571 311.200 C 356.648 311.200,358.000 310.558,358.000 309.571 C 358.000 309.367,359.127 309.200,360.504 309.200 C 362.574 309.200,363.094 309.062,363.507 308.400 C 363.899 307.773,364.440 307.600,366.012 307.600 C 367.763 307.600,368.075 307.473,368.473 306.600 C 368.844 305.786,369.214 305.600,370.464 305.600 C 371.733 305.600,372.000 305.461,372.000 304.800 C 372.000 304.213,372.267 304.000,373.000 304.000 C 373.800 304.000,374.000 303.800,374.000 303.000 C 374.000 302.096,374.158 302.000,375.637 302.000 C 376.938 302.000,377.318 301.836,377.484 301.200 C 377.600 300.757,378.030 300.400,378.447 300.400 C 378.984 300.400,379.200 300.113,379.200 299.400 C 379.200 298.600,379.400 298.400,380.200 298.400 C 380.933 298.400,381.200 298.187,381.200 297.600 C 381.200 297.067,381.467 296.800,382.000 296.800 C 382.587 296.800,382.800 296.533,382.800 295.800 C 382.800 295.000,383.000 294.800,383.800 294.800 C 384.533 294.800,384.800 294.587,384.800 294.000 C 384.800 293.467,385.067 293.200,385.600 293.200 C 386.181 293.200,386.400 292.933,386.400 292.228 C 386.400 291.524,386.649 291.220,387.300 291.128 C 388.048 291.022,388.221 290.713,388.323 289.300 C 388.422 287.926,388.595 287.600,389.223 287.600 C 389.698 287.600,390.000 287.326,390.000 286.895 C 390.000 286.507,390.405 286.012,390.900 285.795 C 391.558 285.506,391.833 285.002,391.923 283.920 C 392.010 282.872,392.273 282.367,392.823 282.193 C 393.475 281.986,393.600 281.572,393.600 279.616 C 393.600 277.465,393.677 277.268,394.600 277.036 C 395.454 276.822,395.600 276.556,395.600 275.219 C 395.600 274.005,395.780 273.597,396.400 273.400 C 397.647 273.004,397.668 40.847,396.421 40.521 C 395.835 40.368,395.612 39.907,395.521 38.659 C 395.421 37.288,395.244 36.978,394.500 36.872 C 393.680 36.756,393.600 36.529,393.600 34.335 C 393.600 32.283,393.484 31.895,392.821 31.721 C 392.235 31.568,392.012 31.107,391.921 29.859 C 391.821 28.488,391.644 28.178,390.900 28.072 C 390.249 27.980,390.000 27.676,390.000 26.972 C 390.000 26.267,389.781 26.000,389.200 26.000 C 388.537 26.000,388.400 25.733,388.400 24.443 C 388.400 23.117,388.252 22.850,387.400 22.636 C 386.754 22.474,386.400 22.104,386.400 21.592 C 386.400 21.076,386.131 20.800,385.628 20.800 C 385.132 20.800,384.810 20.478,384.728 19.900 C 384.646 19.322,384.278 18.954,383.700 18.872 C 383.122 18.790,382.800 18.468,382.800 17.972 C 382.800 17.476,382.524 17.200,382.028 17.200 C 381.532 17.200,381.210 16.878,381.128 16.300 C 381.046 15.722,380.678 15.354,380.100 15.272 C 379.522 15.190,379.200 14.868,379.200 14.372 C 379.200 13.867,378.924 13.600,378.400 13.600 C 377.882 13.600,377.600 13.333,377.600 12.843 C 377.600 11.981,376.855 11.600,375.167 11.600 C 374.267 11.600,374.000 11.417,374.000 10.800 C 374.000 10.213,373.733 10.000,373.000 10.000 C 372.286 10.000,372.000 9.784,372.000 9.243 C 372.000 8.430,371.261 8.000,369.864 8.000 C 369.384 8.000,368.768 7.640,368.493 7.200 C 368.150 6.651,367.560 6.400,366.615 6.400 C 365.678 6.400,364.916 6.080,364.236 5.400 C 363.463 4.627,362.824 4.400,361.418 4.400 C 360.131 4.400,359.600 4.237,359.600 3.843 C 359.600 2.807,358.513 2.800,200.429 2.800 C 43.032 2.800,42.522 2.803,41.800 3.600 M349.800 22.991 C 358.005 24.152,362.502 26.409,368.576 32.416 C 372.237 36.038,372.534 36.393,373.160 37.904 C 373.449 38.602,373.937 39.381,374.243 39.636 C 374.549 39.890,374.800 40.443,374.800 40.865 C 374.800 41.287,375.146 42.311,375.570 43.140 C 377.165 46.268,377.200 48.692,377.200 157.000 C 377.200 265.303,377.165 267.776,375.572 270.748 C 375.147 271.540,374.800 272.465,374.800 272.803 C 374.800 273.141,373.945 274.589,372.900 276.021 C 364.295 287.815,356.104 291.738,340.462 291.558 C 335.295 291.498,334.204 291.590,333.562 292.140 C 332.821 292.774,332.800 294.077,332.783 339.896 C 332.764 391.703,332.830 390.260,330.398 392.658 C 329.047 393.992,326.770 394.522,326.219 393.631 C 326.094 393.428,325.416 393.135,324.714 392.981 C 323.424 392.698,316.914 386.581,314.785 383.651 C 314.246 382.909,312.593 380.749,311.112 378.851 C 309.631 376.953,308.152 375.040,307.825 374.600 C 307.498 374.160,306.357 372.720,305.290 371.400 C 304.223 370.080,302.917 368.370,302.388 367.600 C 301.859 366.830,300.160 364.635,298.613 362.722 C 294.695 357.877,291.251 353.474,289.600 351.200 C 288.018 349.020,285.019 345.192,279.900 338.818 C 277.975 336.421,276.400 334.346,276.400 334.206 C 276.400 334.067,275.177 332.478,273.682 330.676 C 272.187 328.874,270.529 326.770,269.998 326.000 C 269.138 324.754,266.051 320.812,264.674 319.200 C 264.392 318.870,263.853 318.108,263.476 317.506 C 263.099 316.905,257.194 310.830,250.355 304.006 L 237.920 291.600 145.790 291.600 C 56.032 291.600,53.558 291.580,49.729 290.819 C 41.508 289.186,35.324 285.544,30.396 279.434 C 29.316 278.095,28.201 276.716,27.917 276.370 C 25.737 273.711,23.981 268.171,23.552 262.600 C 22.765 252.387,23.302 47.591,24.120 46.000 C 24.516 45.230,25.010 43.841,25.219 42.914 C 27.180 34.177,39.258 24.618,50.400 22.986 C 55.776 22.198,344.229 22.203,349.800 22.991 M198.557 48.391 C 197.517 48.812,197.149 50.454,197.477 53.218 C 197.833 56.227,198.400 56.392,208.487 56.431 C 212.949 56.449,220.187 56.674,224.572 56.933 C 234.645 57.526,234.789 57.465,234.460 52.766 C 234.287 50.284,233.631 49.787,229.799 49.235 C 222.727 48.216,200.478 47.615,198.557 48.391 M177.200 49.670 C 170.851 50.506,161.571 52.093,157.800 52.988 C 141.655 56.819,139.503 57.960,142.597 61.054 C 142.932 61.389,143.390 62.008,143.617 62.431 C 144.181 63.485,145.459 63.418,151.287 62.028 C 159.744 60.010,162.021 59.559,166.778 58.957 C 176.120 57.774,181.451 57.218,183.520 57.209 C 187.477 57.192,188.514 56.146,188.039 52.649 C 187.471 48.465,187.107 48.365,177.200 49.670 M244.500 52.043 C 243.877 52.687,243.845 56.423,244.452 57.754 C 244.847 58.621,245.487 58.876,249.552 59.782 C 252.108 60.352,255.550 61.180,257.200 61.623 C 258.850 62.067,260.764 62.579,261.453 62.762 C 262.142 62.945,263.312 63.397,264.053 63.767 C 266.766 65.122,268.183 65.189,272.674 64.174 C 279.858 62.551,279.769 62.243,271.000 58.369 C 263.192 54.921,245.745 50.756,244.500 52.043 M128.238 63.400 C 127.428 63.950,126.622 64.400,126.448 64.400 C 126.167 64.400,122.927 66.749,121.757 67.800 C 117.893 71.274,117.397 71.893,116.118 74.841 L 115.091 77.210 115.867 79.574 C 117.220 83.701,121.295 88.134,126.222 90.838 C 127.858 91.736,129.298 92.634,129.422 92.835 C 130.063 93.872,132.391 93.196,133.332 91.700 C 133.851 90.875,134.618 89.680,135.038 89.044 C 135.457 88.408,135.980 87.598,136.200 87.244 C 136.420 86.890,137.175 85.862,137.877 84.961 C 139.868 82.405,139.983 81.330,138.344 80.586 C 131.315 77.397,129.545 73.890,133.000 70.000 C 135.101 67.634,135.152 67.277,133.735 64.835 C 132.090 62.002,130.796 61.664,128.238 63.400 M277.775 72.960 C 273.852 73.708,273.602 73.812,271.817 75.454 C 270.177 76.964,264.991 79.811,262.200 80.735 C 256.518 82.616,256.283 82.928,257.333 87.166 C 257.692 88.615,258.102 91.282,258.244 93.093 C 258.633 98.051,259.664 98.517,265.000 96.150 C 265.660 95.858,267.820 94.998,269.800 94.240 C 282.945 89.207,292.085 80.927,290.922 75.108 C 290.462 72.808,284.064 71.763,277.775 72.960 M157.912 80.395 C 154.767 81.591,149.667 85.610,146.427 89.444 C 144.064 92.241,140.658 98.364,139.195 102.444 L 138.247 105.088 139.126 112.147 C 139.962 118.863,141.346 124.419,142.578 126.000 C 142.835 126.330,143.246 127.073,143.492 127.651 C 143.737 128.228,144.484 129.090,145.151 129.565 L 146.364 130.429 146.982 129.234 C 147.322 128.577,147.598 127.716,147.597 127.320 C 147.585 124.760,151.783 111.434,153.747 107.800 C 154.103 107.140,154.396 106.321,154.398 105.980 C 154.399 105.639,154.562 105.189,154.760 104.980 C 154.958 104.771,155.877 103.160,156.803 101.400 C 157.728 99.640,158.736 97.916,159.043 97.569 C 159.349 97.221,159.600 96.814,159.600 96.664 C 159.600 96.128,163.051 91.346,166.100 87.655 C 169.452 83.598,169.523 83.434,168.491 82.121 C 166.685 79.823,161.596 78.993,157.912 80.395 M243.540 85.393 C 243.434 85.499,241.199 85.861,238.574 86.197 C 235.948 86.533,232.990 86.971,232.000 87.170 C 231.010 87.370,226.420 87.737,221.800 87.987 C 209.330 88.660,209.030 88.865,206.565 98.400 C 204.818 105.160,205.300 105.722,212.600 105.433 C 218.147 105.213,221.308 104.923,230.600 103.781 C 250.139 101.380,250.229 101.310,248.175 90.031 C 247.444 86.016,245.182 83.752,243.540 85.393 M178.400 89.030 C 176.702 90.195,172.869 94.033,169.700 97.742 C 165.471 102.693,165.644 103.199,171.808 103.898 C 174.224 104.172,177.646 104.577,179.413 104.797 C 183.863 105.352,193.266 105.771,194.473 105.468 C 195.398 105.235,195.549 104.834,196.555 99.909 C 197.152 96.989,197.833 94.150,198.067 93.600 C 199.794 89.557,199.500 89.280,193.200 89.014 C 190.450 88.898,186.220 88.700,183.800 88.574 C 180.049 88.378,179.252 88.445,178.400 89.030 M107.950 90.261 C 106.835 91.604,107.218 98.253,108.556 100.800 C 111.123 105.687,115.590 109.678,122.735 113.468 L 124.869 114.600 125.600 113.699 C 126.219 112.934,127.472 108.721,128.270 104.720 C 128.533 103.397,127.340 102.170,124.284 100.623 C 121.838 99.384,121.045 98.917,119.327 97.701 C 118.626 97.205,117.860 96.800,117.624 96.800 C 117.388 96.800,115.557 95.180,113.557 93.200 C 109.874 89.556,108.941 89.067,107.950 90.261 M291.870 92.472 C 290.457 93.776,283.953 98.259,282.641 98.832 C 276.154 101.670,274.897 103.156,275.849 106.859 C 276.347 108.793,276.456 110.548,276.307 114.200 C 276.013 121.433,275.721 121.352,284.800 116.549 C 295.291 111.000,300.447 103.746,298.413 97.392 C 296.829 92.443,294.114 90.401,291.870 92.472 M263.918 106.615 C 263.385 107.148,251.681 110.077,246.400 110.998 C 244.530 111.324,241.650 111.853,240.000 112.172 C 238.350 112.492,235.020 112.957,232.600 113.206 C 224.013 114.090,221.482 116.757,221.164 125.253 C 220.965 130.598,221.490 130.998,227.925 130.405 C 235.904 129.668,246.414 128.439,246.808 128.195 C 246.972 128.093,248.411 127.825,250.004 127.599 C 260.316 126.137,263.301 124.144,266.122 116.836 C 267.940 112.127,266.249 104.284,263.918 106.615 M102.096 112.100 C 101.040 113.227,100.644 114.293,100.007 117.723 C 98.398 126.381,104.471 134.232,117.860 140.801 C 123.378 143.508,123.417 143.459,123.732 133.446 C 124.011 124.590,124.125 124.927,120.187 122.954 C 118.526 122.122,116.972 121.207,116.734 120.921 C 116.496 120.634,116.068 120.400,115.782 120.400 C 115.496 120.400,114.751 119.995,114.128 119.500 C 113.504 119.005,112.707 118.420,112.357 118.200 C 109.820 116.607,108.194 115.367,106.101 113.429 C 103.373 110.904,103.254 110.864,102.096 112.100 M303.301 113.917 C 300.907 116.794,297.629 119.927,296.700 120.228 C 296.315 120.352,296.000 120.610,296.000 120.801 C 296.000 120.992,295.313 121.535,294.473 122.007 C 292.167 123.303,291.657 124.403,292.097 127.133 C 292.298 128.380,292.384 130.480,292.289 131.800 C 291.952 136.484,292.650 136.862,296.400 134.026 C 305.970 126.789,309.826 119.430,307.181 113.451 C 306.123 111.058,305.631 111.117,303.301 113.917 M161.331 112.983 C 160.450 113.611,158.364 119.574,157.810 123.045 C 157.463 125.226,157.926 125.626,161.881 126.556 C 166.962 127.752,167.311 127.498,168.411 121.800 C 168.665 120.480,169.307 118.612,169.837 117.650 C 171.648 114.358,171.118 113.494,167.000 113.029 C 165.680 112.880,164.060 112.669,163.400 112.560 C 162.672 112.441,161.858 112.607,161.331 112.983 M184.397 115.158 C 181.683 116.247,177.200 123.259,177.200 126.415 C 177.200 128.662,178.137 129.148,183.388 129.626 C 186.021 129.865,188.275 130.123,188.397 130.198 C 189.156 130.667,208.953 131.212,210.207 130.798 L 211.600 130.338 211.617 126.269 C 211.627 124.031,211.811 121.390,212.026 120.400 C 212.928 116.245,212.942 115.698,212.147 115.453 C 211.117 115.134,185.144 114.859,184.397 115.158 M89.289 129.423 C 87.119 130.943,88.746 141.626,91.488 143.855 L 92.600 144.759 93.952 141.960 C 95.586 138.576,95.748 136.497,94.499 134.920 C 94.011 134.304,92.964 132.675,92.172 131.300 C 90.585 128.547,90.562 128.531,89.289 129.423 M280.400 129.111 C 280.070 129.217,279.080 129.614,278.200 129.994 C 275.853 131.006,265.438 134.122,262.800 134.602 C 262.030 134.742,260.590 135.096,259.600 135.389 C 258.610 135.682,255.100 136.401,251.800 136.986 C 248.500 137.571,245.170 138.174,244.400 138.325 C 240.361 139.118,238.545 150.662,242.198 152.326 C 243.655 152.990,256.527 150.415,266.470 147.471 C 279.155 143.714,279.712 143.312,281.953 136.287 C 283.747 130.665,283.215 128.206,280.400 129.111 M133.256 132.637 C 132.939 133.332,132.800 138.478,132.800 149.479 L 132.800 165.320 133.847 167.388 C 136.285 172.203,142.142 172.980,146.000 169.000 C 147.456 167.498,147.498 167.083,147.089 158.400 C 146.918 154.770,146.705 149.910,146.617 147.600 C 146.528 145.290,146.443 143.274,146.428 143.121 C 146.372 142.562,144.558 140.895,142.812 139.800 C 140.515 138.360,136.805 134.857,136.371 133.719 C 135.758 132.115,133.803 131.436,133.256 132.637 M157.176 136.137 C 156.110 136.668,155.452 148.908,156.362 151.299 C 156.926 152.784,162.345 153.963,171.645 154.627 C 176.398 154.966,176.171 155.278,176.187 148.400 C 176.198 144.026,176.327 142.810,176.871 142.000 C 178.414 139.700,176.518 138.000,172.411 138.000 C 171.731 138.000,168.706 137.554,165.688 137.008 C 162.669 136.463,159.739 135.934,159.176 135.833 C 158.613 135.733,157.713 135.869,157.176 136.137 M308.853 136.536 C 308.536 136.918,308.493 139.539,308.704 145.636 L 309.000 154.200 310.185 154.200 C 311.058 154.200,311.492 153.937,311.834 153.200 C 312.090 152.650,312.637 151.494,313.050 150.631 C 315.581 145.339,311.876 132.894,308.853 136.536 M188.118 141.587 C 184.751 145.227,184.894 154.327,188.339 155.660 C 191.533 156.896,229.316 155.382,231.058 153.949 C 231.489 153.594,231.434 143.200,230.989 140.979 C 230.825 140.163,230.690 140.158,210.112 140.179 L 189.400 140.200 188.118 141.587 M103.657 145.224 C 102.850 145.714,102.397 146.313,102.391 146.894 C 102.386 147.392,102.026 148.585,101.591 149.544 C 100.033 152.977,100.958 154.364,107.128 157.850 C 107.858 158.262,109.298 159.079,110.328 159.664 C 118.569 164.348,123.078 165.951,123.245 164.257 C 123.770 158.912,122.655 152.800,121.156 152.800 C 120.138 152.800,109.348 147.423,106.357 145.424 C 104.914 144.461,104.912 144.461,103.657 145.224 M295.400 146.008 C 294.302 146.742,291.982 147.904,287.200 150.112 C 282.890 152.103,279.267 153.493,273.930 155.204 C 269.227 156.712,269.407 156.503,268.382 161.632 C 266.890 169.098,267.327 174.660,269.471 175.482 C 270.349 175.819,280.916 172.810,284.696 171.146 C 285.628 170.736,286.618 170.399,286.896 170.399 C 287.173 170.398,287.940 170.068,288.600 169.666 C 289.260 169.264,290.329 168.803,290.976 168.641 C 291.622 168.479,292.640 167.999,293.237 167.573 C 293.835 167.148,294.502 166.800,294.720 166.800 C 296.869 166.800,298.874 160.015,299.419 150.894 C 299.766 145.081,298.708 143.795,295.400 146.008 M323.967 151.935 C 320.588 154.078,320.262 155.443,321.323 163.000 L 321.829 166.600 323.814 166.482 C 324.906 166.417,327.420 166.327,329.400 166.282 C 333.776 166.182,334.002 166.054,333.992 163.676 C 333.950 153.838,329.389 148.496,323.967 151.935 M84.054 152.370 C 80.006 153.401,80.922 167.243,85.371 172.285 C 85.607 172.553,86.700 173.820,87.800 175.101 C 92.614 180.706,96.000 182.363,96.000 179.113 C 96.000 175.302,97.585 170.169,99.716 167.074 L 100.491 165.949 99.546 164.938 C 99.026 164.382,97.700 163.274,96.600 162.475 C 93.252 160.043,90.007 157.264,87.441 154.632 C 85.430 152.569,84.833 152.171,84.054 152.370 M253.705 160.411 C 252.749 160.795,244.821 162.223,240.200 162.844 C 238.660 163.051,234.572 163.576,231.116 164.011 C 223.786 164.934,223.343 165.097,221.942 167.385 C 219.442 171.471,219.391 179.459,221.856 181.073 C 222.981 181.811,236.027 181.298,243.800 180.212 C 246.000 179.904,249.510 179.450,251.600 179.203 C 255.314 178.764,257.573 178.173,258.025 177.520 C 258.196 177.274,258.199 163.444,258.029 160.500 C 257.995 159.915,255.087 159.855,253.705 160.411 M157.468 163.389 C 157.002 163.855,156.799 164.745,156.795 166.329 C 156.793 167.578,156.505 169.590,156.157 170.800 C 154.793 175.538,154.558 175.194,160.115 176.607 C 164.027 177.601,164.384 177.217,164.366 172.037 C 164.358 169.915,164.543 167.676,164.777 167.062 C 165.288 165.715,164.950 164.108,164.054 163.631 C 162.580 162.846,158.173 162.684,157.468 163.389 M175.501 165.952 C 172.108 169.985,173.598 178.858,177.754 179.370 C 190.942 180.992,208.073 182.047,209.670 181.334 C 210.578 180.929,210.600 180.789,210.606 175.359 C 210.610 171.403,210.773 169.483,211.170 168.700 C 211.590 167.872,211.622 167.367,211.300 166.659 L 210.871 165.719 195.936 165.455 C 187.721 165.311,179.997 165.084,178.772 164.952 C 176.644 164.724,176.498 164.769,175.501 165.952 M310.000 168.446 C 309.230 169.114,307.610 170.301,306.400 171.084 C 305.190 171.867,303.750 172.809,303.200 173.177 C 302.650 173.544,300.080 174.895,297.489 176.177 C 290.977 179.399,289.974 181.460,291.823 187.819 C 292.820 191.250,293.694 191.119,302.600 186.206 C 312.651 180.661,313.401 179.810,313.695 173.610 C 314.010 166.963,313.130 165.733,310.000 168.446 M109.000 171.178 C 104.396 173.059,104.966 187.421,109.737 189.751 C 114.538 192.095,127.526 196.805,130.854 197.408 C 132.869 197.773,132.980 197.452,132.991 191.200 C 132.999 186.388,133.103 185.572,133.948 183.703 C 135.264 180.791,134.793 180.162,130.151 178.624 C 128.198 177.977,125.790 177.144,124.800 176.772 C 117.857 174.166,116.185 173.470,112.488 171.645 C 110.639 170.733,110.225 170.677,109.000 171.178 M328.038 175.877 C 325.244 177.024,318.939 183.443,314.877 189.275 C 314.369 190.004,313.078 191.860,312.008 193.400 C 308.814 197.995,307.102 200.327,305.160 202.727 C 301.887 206.769,301.908 206.469,304.510 212.000 C 307.275 217.876,308.423 218.611,310.535 215.856 C 311.064 215.165,311.937 214.150,312.475 213.600 C 313.626 212.422,317.057 208.246,318.200 206.630 C 318.640 206.008,319.374 205.027,319.831 204.450 C 321.259 202.648,324.422 197.987,324.838 197.073 C 325.056 196.593,325.768 195.300,326.420 194.200 C 327.071 193.100,327.713 191.930,327.846 191.600 C 327.979 191.270,328.502 190.100,329.008 189.000 C 332.240 181.978,332.921 178.757,331.523 177.117 C 330.580 176.010,329.045 175.464,328.038 175.877 M145.125 184.159 C 142.591 186.244,141.780 189.986,142.865 194.588 C 144.312 200.727,145.674 201.627,155.373 202.845 C 157.119 203.064,158.663 203.315,158.805 203.403 C 158.947 203.491,161.479 203.838,164.432 204.174 C 167.384 204.511,171.581 205.002,173.758 205.265 C 178.122 205.794,179.652 205.140,179.000 203.023 C 177.793 199.106,177.714 196.603,178.684 192.964 C 179.623 189.441,179.444 189.298,172.940 188.396 C 164.458 187.219,154.571 185.375,147.574 183.666 C 146.391 183.377,145.973 183.461,145.125 184.159 M277.219 183.633 C 275.910 184.168,270.330 185.491,265.400 186.434 C 263.200 186.855,261.147 187.295,260.838 187.411 C 260.037 187.713,243.660 190.000,242.302 190.000 C 238.781 190.000,237.487 194.153,239.186 200.000 C 240.554 204.706,240.500 204.698,253.800 202.139 C 255.560 201.800,258.361 201.290,260.024 201.006 C 261.687 200.721,264.027 200.211,265.224 199.872 C 266.421 199.533,269.290 198.769,271.600 198.174 C 283.292 195.163,283.898 194.726,282.621 190.235 C 282.303 189.116,281.898 187.120,281.721 185.800 L 281.400 183.400 279.800 183.316 C 278.920 183.269,277.759 183.412,277.219 183.633 M189.886 191.793 C 187.170 194.590,187.080 200.561,189.692 204.680 L 190.844 206.497 208.122 206.247 C 231.826 205.904,230.916 206.114,229.781 201.252 C 229.457 199.860,229.165 197.351,229.133 195.675 C 229.048 191.184,228.751 190.992,222.139 191.152 C 219.313 191.220,216.887 191.346,216.749 191.432 C 216.459 191.611,199.379 190.947,194.560 190.569 L 191.321 190.315 189.886 191.793 M106.075 212.831 C 100.999 213.864,96.129 215.563,91.633 217.868 C 82.172 222.719,81.567 223.665,83.754 230.176 C 84.302 231.807,85.231 233.868,85.819 234.756 L 86.888 236.372 88.422 235.589 C 89.266 235.158,90.102 234.566,90.279 234.274 C 90.866 233.302,95.747 230.169,99.640 228.265 C 103.078 226.584,104.770 225.988,109.600 224.757 C 110.744 224.466,115.762 224.370,123.289 224.498 C 124.543 224.519,125.600 223.781,125.600 222.885 C 125.600 222.339,127.298 218.696,129.062 215.457 C 129.896 213.925,129.263 213.298,126.143 212.564 C 122.540 211.716,110.783 211.872,106.075 212.831 M291.985 216.101 C 289.907 217.940,286.923 220.409,284.400 222.377 C 280.584 225.354,280.560 225.372,276.939 227.886 C 273.389 230.350,272.630 231.508,273.753 232.748 C 274.109 233.141,274.400 233.646,274.400 233.870 C 274.400 234.093,274.755 234.598,275.190 234.991 C 275.624 235.384,276.092 236.059,276.229 236.490 C 276.678 237.907,278.844 240.800,279.455 240.800 C 280.085 240.800,281.661 240.066,282.000 239.614 C 282.110 239.467,283.218 238.678,284.463 237.859 C 285.707 237.041,286.944 236.108,287.212 235.786 C 287.479 235.464,287.924 235.200,288.200 235.200 C 288.476 235.200,288.949 234.901,289.251 234.535 C 289.553 234.170,290.280 233.577,290.867 233.219 C 292.475 232.239,295.104 230.059,297.679 227.571 C 300.304 225.034,300.305 225.029,298.117 220.600 C 295.298 214.894,294.232 214.112,291.985 216.101 M138.936 219.500 C 136.569 221.723,134.800 224.647,134.800 226.336 C 134.800 227.515,136.655 229.600,137.704 229.600 C 138.624 229.600,152.604 237.114,158.400 240.723 C 161.640 242.740,163.664 244.033,164.884 244.863 C 166.582 246.018,168.329 245.849,168.633 244.500 C 169.021 242.777,170.717 237.702,171.217 236.769 C 172.151 235.023,171.093 233.669,167.000 231.371 C 166.051 230.839,154.867 224.132,154.000 223.575 C 153.670 223.363,152.680 222.834,151.800 222.400 C 150.920 221.966,149.930 221.439,149.600 221.230 C 149.270 221.022,148.460 220.602,147.800 220.299 C 147.140 219.995,146.240 219.565,145.800 219.341 C 141.398 217.108,141.485 217.106,138.936 219.500 M73.304 235.412 C 72.819 235.752,72.156 236.878,71.831 237.915 C 71.506 238.952,70.949 240.603,70.593 241.585 C 69.225 245.357,69.421 254.719,70.938 258.076 C 71.267 258.804,71.664 259.850,71.821 260.400 C 71.977 260.950,72.441 261.878,72.852 262.462 C 73.264 263.046,73.600 263.685,73.600 263.883 C 73.600 266.852,77.926 268.543,79.132 266.046 C 79.992 264.267,80.288 263.889,82.917 261.220 C 85.015 259.090,85.105 258.357,83.583 255.800 C 82.824 254.524,82.000 250.733,82.000 248.519 C 82.000 247.731,81.549 246.505,80.900 245.528 C 78.971 242.623,78.297 241.472,76.629 238.233 C 74.824 234.728,74.578 234.520,73.304 235.412 M261.600 237.272 C 255.907 240.805,239.458 247.987,233.400 249.583 C 230.095 250.454,229.228 252.049,229.210 257.292 C 229.198 260.538,230.122 263.200,231.260 263.200 C 232.163 263.200,247.324 258.173,248.800 257.384 C 249.350 257.090,252.050 255.860,254.800 254.650 C 259.948 252.386,265.862 249.402,268.500 247.737 C 270.603 246.409,270.463 245.523,267.368 240.593 C 264.460 235.961,264.072 235.737,261.600 237.272 M179.717 240.900 C 177.384 243.964,176.948 251.307,179.000 252.994 C 183.241 256.480,198.142 262.569,206.516 264.239 C 215.192 265.969,220.156 265.566,220.115 263.134 C 219.949 253.314,219.782 252.998,214.600 252.688 C 209.670 252.394,200.672 250.122,196.937 248.229 C 196.311 247.912,194.720 247.171,193.400 246.581 C 190.712 245.382,190.604 245.328,186.876 243.327 C 185.404 242.537,183.722 241.556,183.138 241.146 C 181.918 240.289,180.273 240.171,179.717 240.900 M91.000 267.645 C 86.990 268.863,84.939 274.602,87.448 277.584 C 90.408 281.102,95.125 280.532,97.523 276.366 C 99.883 272.265,95.423 266.302,91.000 267.645 " stroke="none" fill="#090909" fill-rule="evenodd"></path><path id="path1" d="M50.400 22.986 C 39.258 24.618,27.180 34.177,25.219 42.914 C 25.010 43.841,24.516 45.230,24.120 46.000 C 23.302 47.591,22.765 252.387,23.552 262.600 C 23.981 268.171,25.737 273.711,27.917 276.370 C 28.201 276.716,29.316 278.095,30.396 279.434 C 35.324 285.544,41.508 289.186,49.729 290.819 C 53.558 291.580,56.032 291.600,145.790 291.600 L 237.920 291.600 250.355 304.006 C 257.194 310.830,263.099 316.905,263.476 317.506 C 263.853 318.108,264.392 318.870,264.674 319.200 C 266.051 320.812,269.138 324.754,269.998 326.000 C 270.529 326.770,272.187 328.874,273.682 330.676 C 275.177 332.478,276.400 334.067,276.400 334.206 C 276.400 334.346,277.975 336.421,279.900 338.818 C 285.019 345.192,288.018 349.020,289.600 351.200 C 291.251 353.474,294.695 357.877,298.613 362.722 C 300.160 364.635,301.859 366.830,302.388 367.600 C 302.917 368.370,304.223 370.080,305.290 371.400 C 306.357 372.720,307.498 374.160,307.825 374.600 C 308.152 375.040,309.631 376.953,311.112 378.851 C 312.593 380.749,314.246 382.909,314.785 383.651 C 316.914 386.581,323.424 392.698,324.714 392.981 C 325.416 393.135,326.094 393.428,326.219 393.631 C 326.770 394.522,329.047 393.992,330.398 392.658 C 332.830 390.260,332.764 391.703,332.783 339.896 C 332.800 294.077,332.821 292.774,333.562 292.140 C 334.204 291.590,335.295 291.498,340.462 291.558 C 356.104 291.738,364.295 287.815,372.900 276.021 C 373.945 274.589,374.800 273.141,374.800 272.803 C 374.800 272.465,375.147 271.540,375.572 270.748 C 377.165 267.776,377.200 265.303,377.200 157.000 C 377.200 48.692,377.165 46.268,375.570 43.140 C 375.146 42.311,374.800 41.287,374.800 40.865 C 374.800 40.443,374.549 39.890,374.243 39.636 C 373.937 39.381,373.449 38.602,373.160 37.904 C 372.534 36.393,372.237 36.038,368.576 32.416 C 362.502 26.409,358.005 24.152,349.800 22.991 C 344.229 22.203,55.776 22.198,50.400 22.986 M219.600 48.415 C 232.998 49.169,234.234 49.531,234.460 52.766 C 234.789 57.465,234.645 57.526,224.572 56.933 C 220.187 56.674,212.949 56.449,208.487 56.431 C 197.553 56.389,196.327 55.666,197.472 49.938 C 197.885 47.873,203.331 47.498,219.600 48.415 M187.006 49.606 C 187.754 50.433,188.517 54.430,188.123 55.457 C 187.748 56.433,185.735 57.200,183.520 57.209 C 181.451 57.218,176.120 57.774,166.778 58.957 C 162.021 59.559,159.744 60.010,151.287 62.028 C 145.459 63.418,144.181 63.485,143.617 62.431 C 143.390 62.008,142.932 61.389,142.597 61.054 C 139.503 57.960,141.655 56.819,157.800 52.988 C 169.824 50.135,185.809 48.284,187.006 49.606 M250.800 52.378 C 256.731 53.595,267.265 56.720,271.000 58.369 C 279.769 62.243,279.858 62.551,272.674 64.174 C 268.183 65.189,266.766 65.122,264.053 63.767 C 263.312 63.397,262.142 62.945,261.453 62.762 C 260.764 62.579,258.850 62.067,257.200 61.623 C 255.550 61.180,252.108 60.352,249.552 59.782 C 244.256 58.601,244.000 58.366,244.000 54.661 C 244.000 51.381,244.737 51.133,250.800 52.378 M132.235 62.706 C 132.894 63.152,134.800 66.581,134.800 67.322 C 134.800 67.680,133.990 68.885,133.000 70.000 C 129.545 73.890,131.315 77.397,138.344 80.586 C 139.983 81.330,139.868 82.405,137.877 84.961 C 137.175 85.862,136.420 86.890,136.200 87.244 C 135.980 87.598,135.457 88.408,135.038 89.044 C 134.618 89.680,133.851 90.875,133.332 91.700 C 132.391 93.196,130.063 93.872,129.422 92.835 C 129.298 92.634,127.858 91.736,126.222 90.838 C 121.295 88.134,117.220 83.701,115.867 79.574 L 115.091 77.210 116.118 74.841 C 117.397 71.893,117.893 71.274,121.757 67.800 C 122.927 66.749,126.167 64.400,126.448 64.400 C 126.622 64.400,127.428 63.950,128.238 63.400 C 129.684 62.418,131.375 62.125,132.235 62.706 M289.241 73.300 C 296.300 76.286,285.054 88.399,269.800 94.240 C 267.820 94.998,265.660 95.858,265.000 96.150 C 259.664 98.517,258.633 98.051,258.244 93.093 C 258.102 91.282,257.692 88.615,257.333 87.166 C 256.283 82.928,256.518 82.616,262.200 80.735 C 264.991 79.811,270.177 76.964,271.817 75.454 C 272.688 74.653,273.749 73.886,274.175 73.748 C 278.387 72.391,286.519 72.149,289.241 73.300 M165.867 80.421 C 167.739 81.215,169.173 82.523,169.191 83.452 C 169.196 83.700,167.805 85.592,166.100 87.655 C 163.051 91.346,159.600 96.128,159.600 96.664 C 159.600 96.814,159.349 97.221,159.043 97.569 C 158.736 97.916,157.728 99.640,156.803 101.400 C 155.877 103.160,154.958 104.771,154.760 104.980 C 154.562 105.189,154.399 105.639,154.398 105.980 C 154.396 106.321,154.103 107.140,153.747 107.800 C 151.783 111.434,147.585 124.760,147.597 127.320 C 147.598 127.716,147.322 128.577,146.982 129.234 L 146.364 130.429 145.151 129.565 C 144.484 129.090,143.737 128.228,143.492 127.651 C 143.246 127.073,142.835 126.330,142.578 126.000 C 141.346 124.419,139.962 118.863,139.126 112.147 L 138.247 105.088 139.195 102.444 C 142.070 94.424,147.208 87.413,153.512 82.908 C 158.104 79.626,162.100 78.822,165.867 80.421 M246.731 85.900 C 248.811 87.676,249.598 99.567,247.700 100.548 C 245.161 101.860,238.356 102.983,222.000 104.791 C 216.127 105.440,207.083 105.712,206.428 105.259 C 204.905 104.207,206.724 95.603,209.454 90.944 C 210.775 88.690,211.355 88.551,221.800 87.987 C 226.420 87.737,231.010 87.370,232.000 87.170 C 232.990 86.971,235.948 86.533,238.574 86.197 C 241.199 85.861,243.434 85.499,243.540 85.393 C 243.993 84.940,245.976 85.255,246.731 85.900 M193.200 89.014 C 199.500 89.280,199.794 89.557,198.067 93.600 C 197.833 94.150,197.152 96.989,196.555 99.909 C 195.549 104.834,195.398 105.235,194.473 105.468 C 193.266 105.771,183.863 105.352,179.413 104.797 C 177.646 104.577,174.224 104.172,171.808 103.898 C 164.995 103.125,165.552 101.083,175.063 91.958 C 178.923 88.254,178.776 88.311,183.800 88.574 C 186.220 88.700,190.450 88.898,193.200 89.014 M113.557 93.200 C 115.557 95.180,117.388 96.800,117.624 96.800 C 117.860 96.800,118.626 97.205,119.327 97.701 C 121.045 98.917,121.838 99.384,124.284 100.623 C 127.340 102.170,128.533 103.397,128.270 104.720 C 127.472 108.721,126.219 112.934,125.600 113.699 L 124.869 114.600 122.735 113.468 C 112.130 107.843,107.400 102.071,107.401 94.761 C 107.401 88.354,108.403 88.100,113.557 93.200 M296.563 93.749 C 301.402 101.151,298.415 108.099,287.386 115.099 C 284.680 116.816,278.080 120.000,277.227 120.000 C 276.154 120.000,276.088 119.586,276.307 114.200 C 276.456 110.548,276.347 108.793,275.849 106.859 C 274.897 103.156,276.154 101.670,282.641 98.832 C 283.953 98.259,290.457 93.776,291.870 92.472 C 293.668 90.813,294.855 91.136,296.563 93.749 M266.033 107.646 C 268.555 111.189,266.279 119.295,261.388 124.186 C 260.002 125.571,256.141 126.729,250.004 127.599 C 248.411 127.825,246.972 128.093,246.808 128.195 C 246.414 128.439,235.904 129.668,227.925 130.405 C 221.490 130.998,220.965 130.598,221.164 125.253 C 221.482 116.757,224.013 114.090,232.600 113.206 C 235.020 112.957,238.350 112.492,240.000 112.172 C 241.650 111.853,244.530 111.324,246.400 110.998 C 251.681 110.077,263.385 107.148,263.918 106.615 C 264.428 106.106,265.206 106.485,266.033 107.646 M106.101 113.429 C 108.194 115.367,109.820 116.607,112.357 118.200 C 112.707 118.420,113.504 119.005,114.128 119.500 C 114.751 119.995,115.496 120.400,115.782 120.400 C 116.068 120.400,116.496 120.634,116.734 120.921 C 116.972 121.207,118.526 122.122,120.187 122.954 C 124.125 124.927,124.011 124.590,123.732 133.446 C 123.417 143.459,123.378 143.508,117.860 140.801 C 102.768 133.396,97.046 124.364,100.883 114.000 C 102.068 110.798,103.133 110.682,106.101 113.429 M307.181 113.451 C 309.826 119.430,305.970 126.789,296.400 134.026 C 292.650 136.862,291.952 136.484,292.289 131.800 C 292.384 130.480,292.298 128.380,292.097 127.133 C 291.657 124.403,292.167 123.303,294.473 122.007 C 295.313 121.535,296.000 120.992,296.000 120.801 C 296.000 120.610,296.315 120.352,296.700 120.228 C 297.629 119.927,300.907 116.794,303.301 113.917 C 305.631 111.117,306.123 111.058,307.181 113.451 M167.000 113.029 C 171.118 113.494,171.648 114.358,169.837 117.650 C 169.307 118.612,168.665 120.480,168.411 121.800 C 167.311 127.498,166.962 127.752,161.881 126.556 C 156.958 125.398,156.904 125.213,159.267 117.501 C 160.587 113.192,161.391 112.230,163.400 112.560 C 164.060 112.669,165.680 112.880,167.000 113.029 M212.147 115.453 C 212.942 115.698,212.928 116.245,212.026 120.400 C 211.811 121.390,211.627 124.031,211.617 126.269 L 211.600 130.338 210.207 130.798 C 208.953 131.212,189.156 130.667,188.397 130.198 C 188.275 130.123,186.021 129.865,183.388 129.626 C 178.137 129.148,177.200 128.662,177.200 126.415 C 177.200 123.259,181.683 116.247,184.397 115.158 C 185.144 114.859,211.117 115.134,212.147 115.453 M92.172 131.300 C 92.964 132.675,94.011 134.304,94.499 134.920 C 95.748 136.497,95.586 138.576,93.952 141.960 L 92.600 144.759 91.488 143.855 C 88.746 141.626,87.119 130.943,89.289 129.423 C 90.562 128.531,90.585 128.547,92.172 131.300 M282.743 129.747 C 284.497 131.112,280.460 142.148,277.696 143.542 C 273.858 145.479,264.511 148.257,253.800 150.645 C 242.455 153.175,241.583 153.143,240.835 150.175 C 239.429 144.591,241.121 138.969,244.400 138.325 C 245.170 138.174,248.500 137.571,251.800 136.986 C 255.100 136.401,258.610 135.682,259.600 135.389 C 260.590 135.096,262.030 134.742,262.800 134.602 C 265.438 134.122,275.853 131.006,278.200 129.994 C 281.016 128.779,281.468 128.755,282.743 129.747 M136.371 133.719 C 136.805 134.857,140.515 138.360,142.812 139.800 C 144.558 140.895,146.372 142.562,146.428 143.121 C 146.443 143.274,146.528 145.290,146.617 147.600 C 146.705 149.910,146.918 154.770,147.089 158.400 C 147.498 167.083,147.456 167.498,146.000 169.000 C 142.142 172.980,136.285 172.203,133.847 167.388 L 132.800 165.320 132.800 149.479 C 132.800 131.864,132.879 131.207,134.873 132.238 C 135.512 132.568,136.186 133.235,136.371 133.719 M165.688 137.008 C 168.706 137.554,171.731 138.000,172.411 138.000 C 176.518 138.000,178.414 139.700,176.871 142.000 C 176.327 142.810,176.198 144.026,176.187 148.400 C 176.180 151.370,176.021 154.048,175.832 154.351 C 175.294 155.217,165.407 154.373,159.471 152.952 C 155.969 152.115,155.953 152.071,156.091 143.461 C 156.211 135.907,156.439 135.344,159.176 135.833 C 159.739 135.934,162.669 136.463,165.688 137.008 M311.244 136.500 C 313.576 138.453,314.693 147.196,313.050 150.631 C 312.637 151.494,312.090 152.650,311.834 153.200 C 311.492 153.937,311.058 154.200,310.185 154.200 L 309.000 154.200 308.704 145.636 C 308.398 136.788,308.502 136.000,309.973 136.000 C 310.344 136.000,310.916 136.225,311.244 136.500 M230.989 140.979 C 231.434 143.200,231.489 153.594,231.058 153.949 C 229.316 155.382,191.533 156.896,188.339 155.660 C 184.894 154.327,184.751 145.227,188.118 141.587 L 189.400 140.200 210.112 140.179 C 230.690 140.158,230.825 140.163,230.989 140.979 M109.200 147.135 C 114.433 149.925,120.501 152.800,121.156 152.800 C 122.655 152.800,123.770 158.912,123.245 164.257 C 123.078 165.951,118.569 164.348,110.328 159.664 C 109.298 159.079,107.858 158.262,107.128 157.850 C 100.958 154.364,100.033 152.977,101.591 149.544 C 102.026 148.585,102.386 147.392,102.391 146.894 C 102.409 145.100,104.635 144.274,106.357 145.424 C 107.150 145.955,108.430 146.724,109.200 147.135 M299.195 145.794 C 299.877 146.615,299.400 154.105,298.306 159.765 C 297.481 164.033,296.070 166.800,294.720 166.800 C 294.502 166.800,293.835 167.148,293.237 167.573 C 292.640 167.999,291.622 168.479,290.976 168.641 C 290.329 168.803,289.260 169.264,288.600 169.666 C 287.940 170.068,287.173 170.398,286.896 170.399 C 286.618 170.399,285.628 170.736,284.696 171.146 C 280.916 172.810,270.349 175.819,269.471 175.482 C 267.327 174.660,266.890 169.098,268.382 161.632 C 269.407 156.503,269.227 156.712,273.930 155.204 C 279.267 153.493,282.890 152.103,287.200 150.112 C 291.982 147.904,294.302 146.742,295.400 146.008 C 296.819 145.059,298.506 144.964,299.195 145.794 M329.870 151.857 C 332.419 153.510,333.967 157.949,333.992 163.676 C 334.002 166.054,333.776 166.182,329.400 166.282 C 327.420 166.327,324.906 166.417,323.814 166.482 L 321.829 166.600 321.323 163.000 C 320.262 155.443,320.588 154.078,323.967 151.935 C 326.197 150.521,327.777 150.500,329.870 151.857 M92.241 159.079 C 93.538 160.148,95.500 161.676,96.600 162.475 C 97.700 163.274,99.026 164.382,99.546 164.938 L 100.491 165.949 99.716 167.074 C 97.585 170.169,96.000 175.302,96.000 179.113 C 96.000 182.363,92.614 180.706,87.800 175.101 C 86.700 173.820,85.607 172.553,85.371 172.285 C 81.980 168.442,80.399 160.032,82.160 155.205 C 83.524 151.468,84.276 151.386,87.441 154.632 C 88.784 156.010,90.944 158.011,92.241 159.079 M258.029 160.500 C 258.199 163.444,258.196 177.274,258.025 177.520 C 257.573 178.173,255.314 178.764,251.600 179.203 C 249.510 179.450,246.000 179.904,243.800 180.212 C 236.027 181.298,222.981 181.811,221.856 181.073 C 219.391 179.459,219.442 171.471,221.942 167.385 C 223.343 165.097,223.786 164.934,231.116 164.011 C 234.572 163.576,238.660 163.051,240.200 162.844 C 244.821 162.223,252.749 160.795,253.705 160.411 C 255.087 159.855,257.995 159.915,258.029 160.500 M164.054 163.631 C 164.950 164.108,165.288 165.715,164.777 167.062 C 164.543 167.676,164.358 169.915,164.366 172.037 C 164.384 177.217,164.027 177.601,160.115 176.607 C 154.558 175.194,154.793 175.538,156.157 170.800 C 156.505 169.590,156.793 167.578,156.795 166.329 C 156.802 163.114,157.369 162.640,160.768 163.002 C 162.216 163.156,163.694 163.439,164.054 163.631 M195.936 165.455 L 210.871 165.719 211.300 166.659 C 211.622 167.367,211.590 167.872,211.170 168.700 C 210.773 169.483,210.610 171.403,210.606 175.359 C 210.600 180.789,210.578 180.929,209.670 181.334 C 208.073 182.047,190.942 180.992,177.754 179.370 C 175.388 179.079,174.526 177.964,173.988 174.500 C 173.031 168.330,174.930 164.539,178.772 164.952 C 179.997 165.084,187.721 165.311,195.936 165.455 M313.566 168.111 C 314.233 169.864,313.574 178.068,312.667 179.294 C 311.968 180.240,307.880 183.254,305.401 184.651 C 293.800 191.190,292.866 191.408,291.823 187.819 C 289.974 181.460,290.977 179.399,297.489 176.177 C 300.080 174.895,302.650 173.544,303.200 173.177 C 303.750 172.809,305.190 171.867,306.400 171.084 C 307.610 170.301,309.230 169.114,310.000 168.446 C 311.703 166.970,313.083 166.840,313.566 168.111 M112.488 171.645 C 116.185 173.470,117.857 174.166,124.800 176.772 C 125.790 177.144,128.198 177.977,130.151 178.624 C 134.793 180.162,135.264 180.791,133.948 183.703 C 133.103 185.572,132.999 186.388,132.991 191.200 C 132.980 197.452,132.869 197.773,130.854 197.408 C 127.526 196.805,114.538 192.095,109.737 189.751 C 105.901 187.877,104.428 178.564,107.159 173.452 C 108.642 170.678,109.759 170.299,112.488 171.645 M331.523 177.117 C 332.921 178.757,332.240 181.978,329.008 189.000 C 328.502 190.100,327.979 191.270,327.846 191.600 C 327.713 191.930,327.071 193.100,326.420 194.200 C 325.768 195.300,325.056 196.593,324.838 197.073 C 324.422 197.987,321.259 202.648,319.831 204.450 C 319.374 205.027,318.640 206.008,318.200 206.630 C 317.057 208.246,313.626 212.422,312.475 213.600 C 311.937 214.150,311.064 215.165,310.535 215.856 C 308.423 218.611,307.275 217.876,304.510 212.000 C 301.908 206.469,301.887 206.769,305.160 202.727 C 307.102 200.327,308.814 197.995,312.008 193.400 C 313.078 191.860,314.369 190.004,314.877 189.275 C 318.939 183.443,325.244 177.024,328.038 175.877 C 329.045 175.464,330.580 176.010,331.523 177.117 M152.600 184.819 C 157.460 185.906,166.677 187.527,172.940 188.396 C 179.444 189.298,179.623 189.441,178.684 192.964 C 177.714 196.603,177.793 199.106,179.000 203.023 C 179.652 205.140,178.122 205.794,173.758 205.265 C 171.581 205.002,167.384 204.511,164.432 204.174 C 161.479 203.838,158.947 203.491,158.805 203.403 C 158.663 203.315,157.119 203.064,155.373 202.845 C 148.614 201.996,145.981 201.161,144.762 199.482 C 140.523 193.640,142.516 182.431,147.574 183.666 C 148.358 183.857,150.620 184.376,152.600 184.819 M281.721 185.800 C 281.898 187.120,282.303 189.116,282.621 190.235 C 283.898 194.726,283.292 195.163,271.600 198.174 C 269.290 198.769,266.421 199.533,265.224 199.872 C 264.027 200.211,261.687 200.721,260.024 201.006 C 258.361 201.290,255.560 201.800,253.800 202.139 C 240.500 204.698,240.554 204.706,239.186 200.000 C 237.487 194.153,238.781 190.000,242.302 190.000 C 243.660 190.000,260.037 187.713,260.838 187.411 C 261.147 187.295,263.200 186.855,265.400 186.434 C 270.330 185.491,275.910 184.168,277.219 183.633 C 277.759 183.412,278.920 183.269,279.800 183.316 L 281.400 183.400 281.721 185.800 M207.149 191.205 C 212.291 191.415,216.611 191.517,216.749 191.432 C 216.887 191.346,219.313 191.220,222.139 191.152 C 228.751 190.992,229.048 191.184,229.133 195.675 C 229.165 197.351,229.457 199.860,229.781 201.252 C 230.916 206.114,231.826 205.904,208.122 206.247 L 190.844 206.497 189.692 204.680 C 187.080 200.561,187.170 194.590,189.886 191.793 L 191.321 190.315 194.560 190.569 C 196.342 190.709,202.007 190.995,207.149 191.205 M126.143 212.564 C 129.263 213.298,129.896 213.925,129.062 215.457 C 127.298 218.696,125.600 222.339,125.600 222.885 C 125.600 223.781,124.543 224.519,123.289 224.498 C 115.762 224.370,110.744 224.466,109.600 224.757 C 104.770 225.988,103.078 226.584,99.640 228.265 C 95.747 230.169,90.866 233.302,90.279 234.274 C 90.102 234.566,89.266 235.158,88.422 235.589 L 86.888 236.372 85.819 234.756 C 82.546 229.811,81.928 224.505,84.371 222.337 C 86.335 220.594,86.427 220.537,91.633 217.868 C 101.564 212.776,116.977 210.407,126.143 212.564 M296.134 216.800 C 300.327 224.162,300.434 224.909,297.679 227.571 C 295.104 230.059,292.475 232.239,290.867 233.219 C 290.280 233.577,289.553 234.170,289.251 234.535 C 288.949 234.901,288.476 235.200,288.200 235.200 C 287.924 235.200,287.479 235.464,287.212 235.786 C 286.944 236.108,285.707 237.041,284.463 237.859 C 283.218 238.678,282.110 239.467,282.000 239.614 C 281.661 240.066,280.085 240.800,279.455 240.800 C 278.844 240.800,276.678 237.907,276.229 236.490 C 276.092 236.059,275.624 235.384,275.190 234.991 C 274.755 234.598,274.400 234.093,274.400 233.870 C 274.400 233.646,274.109 233.141,273.753 232.748 C 272.630 231.508,273.389 230.350,276.939 227.886 C 280.560 225.372,280.584 225.354,284.400 222.377 C 286.923 220.409,289.907 217.940,291.985 216.101 C 293.493 214.766,295.134 215.043,296.134 216.800 M143.668 218.268 C 144.400 218.635,145.360 219.118,145.800 219.341 C 146.240 219.565,147.140 219.995,147.800 220.299 C 148.460 220.602,149.270 221.022,149.600 221.230 C 149.930 221.439,150.920 221.966,151.800 222.400 C 152.680 222.834,153.670 223.363,154.000 223.575 C 154.867 224.132,166.051 230.839,167.000 231.371 C 171.093 233.669,172.151 235.023,171.217 236.769 C 170.717 237.702,169.021 242.777,168.633 244.500 C 168.329 245.849,166.582 246.018,164.884 244.863 C 163.664 244.033,161.640 242.740,158.400 240.723 C 152.604 237.114,138.624 229.600,137.704 229.600 C 135.203 229.600,134.208 226.191,135.857 223.271 C 138.280 218.979,141.268 217.065,143.668 218.268 M76.629 238.233 C 78.297 241.472,78.971 242.623,80.900 245.528 C 81.549 246.505,82.000 247.731,82.000 248.519 C 82.000 250.733,82.824 254.524,83.583 255.800 C 85.105 258.357,85.015 259.090,82.917 261.220 C 80.288 263.889,79.992 264.267,79.132 266.046 C 77.926 268.543,73.600 266.852,73.600 263.883 C 73.600 263.685,73.264 263.046,72.852 262.462 C 72.441 261.878,71.977 260.950,71.821 260.400 C 71.664 259.850,71.267 258.804,70.938 258.076 C 69.421 254.719,69.225 245.357,70.593 241.585 C 70.949 240.603,71.506 238.952,71.831 237.915 C 73.082 233.925,74.457 234.017,76.629 238.233 M267.368 240.593 C 270.463 245.523,270.603 246.409,268.500 247.737 C 265.862 249.402,259.948 252.386,254.800 254.650 C 252.050 255.860,249.350 257.090,248.800 257.384 C 247.324 258.173,232.163 263.200,231.260 263.200 C 230.122 263.200,229.198 260.538,229.210 257.292 C 229.228 252.049,230.095 250.454,233.400 249.583 C 239.458 247.987,255.907 240.805,261.600 237.272 C 264.072 235.737,264.460 235.961,267.368 240.593 M183.138 241.146 C 183.722 241.556,185.404 242.537,186.876 243.327 C 190.604 245.328,190.712 245.382,193.400 246.581 C 194.720 247.171,196.311 247.912,196.937 248.229 C 200.672 250.122,209.670 252.394,214.600 252.688 C 219.782 252.998,219.949 253.314,220.115 263.134 C 220.199 268.122,201.834 264.709,185.800 256.757 C 177.692 252.736,177.796 252.846,177.817 248.304 C 177.834 244.749,178.366 242.674,179.717 240.900 C 180.273 240.171,181.918 240.289,183.138 241.146 M95.104 268.480 C 99.113 270.908,99.236 276.115,95.347 278.780 C 89.876 282.529,83.732 276.139,87.475 270.593 C 89.755 267.215,91.990 266.596,95.104 268.480 " stroke="none" fill="#fbfbfb" fill-rule="evenodd"></path></g></svg>